<svg width="29" height="28" viewBox="0 0 29 28" fill="none" xmlns="http://www.w3.org/2000/svg">
<g id="phone-02">
<path id="Icon" d="M18 2.33325V3.96659C18 4.61998 18 4.94668 17.8729 5.19624C17.761 5.41576 17.5826 5.59424 17.363 5.70609C17.1135 5.83325 16.7868 5.83325 16.1334 5.83325H12.8667C12.2133 5.83325 11.8866 5.83325 11.6371 5.70609C11.4175 5.59424 11.2391 5.41576 11.1272 5.19624C11 4.94668 11 4.61998 11 3.96659V2.33325M10.0667 25.6666H18.9334C20.2402 25.6666 20.8936 25.6666 21.3927 25.4123C21.8317 25.1886 22.1887 24.8316 22.4124 24.3926C22.6667 23.8934 22.6667 23.24 22.6667 21.9333V6.06658C22.6667 4.7598 22.6667 4.1064 22.4124 3.60727C22.1887 3.16823 21.8317 2.81127 21.3927 2.58757C20.8936 2.33325 20.2402 2.33325 18.9334 2.33325H10.0667C8.75992 2.33325 8.10652 2.33325 7.6074 2.58757C7.16835 2.81127 6.8114 3.16823 6.58769 3.60727C6.33337 4.1064 6.33337 4.7598 6.33337 6.06659V21.9333C6.33337 23.24 6.33337 23.8934 6.58769 24.3926C6.8114 24.8316 7.16835 25.1886 7.6074 25.4123C8.10652 25.6666 8.75992 25.6666 10.0667 25.6666Z" stroke="#3960F6" stroke-width="2" stroke-linecap="round" stroke-linejoin="round"/>
</g>
</svg>
