<?xml version="1.0" encoding="UTF-8" standalone="no"?>
<!-- Created with Inkscape (http://www.inkscape.org/) -->

<svg
   version="1.1"
   id="svg2"
   width="1440"
   height="1440"
   viewBox="0 0 1440 1440"
   sodipodi:docname="Policy Logo.ai"
   xmlns:inkscape="http://www.inkscape.org/namespaces/inkscape"
   xmlns:sodipodi="http://sodipodi.sourceforge.net/DTD/sodipodi-0.dtd"
   xmlns="http://www.w3.org/2000/svg"
   xmlns:svg="http://www.w3.org/2000/svg">
  <defs
     id="defs6">
    <clipPath
       clipPathUnits="userSpaceOnUse"
       id="clipPath16">
      <path
         d="M 0,1080 H 1080 V 0 H 0 Z"
         id="path14" />
    </clipPath>
    <clipPath
       clipPathUnits="userSpaceOnUse"
       id="clipPath84">
      <path
         d="M 0,1080 H 1080 V 0 H 0 Z"
         id="path82" />
    </clipPath>
  </defs>
  <sodipodi:namedview
     id="namedview4"
     pagecolor="#ffffff"
     bordercolor="#000000"
     borderopacity="0.25"
     inkscape:showpageshadow="2"
     inkscape:pageopacity="0.0"
     inkscape:pagecheckerboard="0"
     inkscape:deskcolor="#d1d1d1" />
  <g
     id="g8"
     inkscape:groupmode="layer"
     inkscape:label="Policy Logo"
     transform="matrix(1.3333333,0,0,-1.3333333,0,1440)">
    <g
       id="g10">
      <g
         id="g12"
         clip-path="url(#clipPath16)">
        <g
           id="g18"
           transform="translate(558.3986,922.923)">
          <path
             d="m 0,0 c 38.108,-0.347 71.987,-11.147 101.914,-33.001 10.006,-7.307 18.308,-16.942 27.427,-25.472 20.376,-19.061 31.814,-43.262 39.229,-69.525 12.092,-42.834 7.565,-84.3 -11.58,-124.316 -1.548,-3.237 -3.281,-6.36 -5.367,-9.298 -1.237,-1.742 -2.239,-2.046 -4.157,-0.731 -7.096,4.867 -14.243,9.673 -21.565,14.188 -2.487,1.533 -1.537,2.957 -0.787,4.582 5.288,11.458 10.23,23.049 13.377,35.312 11.473,44.72 1.51,84.979 -26.043,121.195 -24.847,32.66 -58.308,50.381 -99.025,53.691 -75.591,6.144 -139.059,-42.086 -152.649,-116.929 -7.377,-40.629 2.203,-78.026 27.661,-110.949 1.374,-1.776 1.983,-2.919 0.483,-5.105 -4.787,-6.974 -9.353,-14.106 -13.782,-21.312 -1.455,-2.366 -2.31,-2.473 -4.386,-0.625 -9.474,8.433 -16.563,18.754 -22.615,29.656 -56.767,102.264 1.632,230.115 116.112,254.582 C -23.633,-1.467 -11.392,-0.251 0,0"
             style="fill:#e47225;fill-opacity:1;fill-rule:nonzero;stroke:none"
             id="path20" />
        </g>
        <g
           id="g22"
           transform="translate(472.4617,669.0943)">
          <path
             d="m 0,0 c -3.445,1.811 -5.633,4.446 -7.607,7.219 -53.963,75.8 -11.382,173.991 74.34,188.405 66.996,11.265 127.095,-32.815 136.359,-100.438 3.144,-22.953 1.103,-45.198 -8.834,-66.392 -2.197,-4.685 -4.911,-9.081 -8.043,-13.205 -1.346,-1.772 -10.884,-3.135 -12.417,-1.698 -1.141,1.069 -0.849,2.695 -0.85,4.092 -0.012,12.917 -0.018,25.834 0.073,38.751 0.097,13.777 0.239,27.522 -2.676,41.129 -9.14,42.671 -48.872,71.493 -92.187,66.715 C 37.087,160.048 7.861,131.786 2.052,91.221 -1.016,69.797 -0.478,48.293 -0.03,26.769 0.152,18.031 0,9.287 0,0"
             style="fill:#f5a622;fill-opacity:1;fill-rule:nonzero;stroke:none"
             id="path24" />
        </g>
        <g
           id="g26"
           transform="translate(525.1583,456.2129)">
          <path
             d="M 0,0 C -8.822,7.269 -18.394,12.407 -29.3,15.031 -52.811,20.69 -75.57,12.9 -88.129,-5.258 c -15.233,-22.023 -13.982,-65.491 19.317,-81.252 18.484,-8.748 36.838,-5.707 54.522,3.319 4.983,2.544 9.382,6 14.493,9.92 0,-8.983 0.032,-17.34 -0.029,-25.697 -0.012,-1.52 -1.554,-1.928 -2.583,-2.609 -11.669,-7.727 -24.645,-11.366 -38.51,-11.737 -29.827,-0.798 -54.579,9.389 -70.231,35.709 -25.525,42.922 -5.509,101.979 47.279,113.98 22.457,5.105 43.507,1.362 62.955,-11.129 C 0.992,24.021 1.859,22.811 1.552,20.407 0.707,13.784 1.386,7.029 0,0"
             style="fill:#13102a;fill-opacity:1;fill-rule:nonzero;stroke:none"
             id="path28" />
        </g>
        <g
           id="g30"
           transform="translate(773.4505,401.6664)">
          <path
             d="m 0,0 c 11.696,12.049 23.425,24.068 35.055,36.181 1.828,1.904 3.681,2.75 6.37,2.679 7.272,-0.189 14.552,-0.065 21.908,-0.065 -0.005,-1.83 -1.364,-2.377 -2.21,-3.203 C 48.906,23.652 36.701,11.698 24.351,-0.104 c -2.12,-2.026 -2.172,-3.102 -0.179,-5.312 14.597,-16.185 29.03,-32.517 44.134,-49.498 -9.512,0 -18.302,-0.018 -27.092,0.016 -1.525,0.006 -2.017,1.479 -2.829,2.408 -12.096,13.825 -24.161,27.677 -36.239,41.518 -0.941,1.078 -1.919,2.125 -2.901,3.21 -1.382,-0.85 -0.699,-2.115 -0.703,-3.105 -0.056,-13.348 -0.182,-26.7 0.059,-40.045 0.064,-3.532 -1.062,-4.28 -4.284,-4.101 -4.723,0.261 -9.476,0.178 -14.209,0.02 -2.317,-0.078 -3.2,0.431 -3.196,3.005 0.079,48.947 0.08,97.894 0,146.84 -0.004,2.681 0.758,3.477 3.397,3.366 4.73,-0.198 9.486,-0.263 14.207,0.017 3.187,0.188 4.093,-0.683 4.072,-3.982 C -1.567,70.139 -1.496,46.024 -1.496,21.91 V 0.947 C -0.997,0.632 -0.499,0.316 0,0"
             style="fill:#13102a;fill-opacity:1;fill-rule:nonzero;stroke:none"
             id="path32" />
        </g>
        <g
           id="g34"
           transform="translate(728.7745,413.618)">
          <path
             d="m 0,0 c -14.667,14.784 -37.155,13.262 -46.753,2.569 -10.585,-11.793 -10.358,-34.618 0.537,-45.831 8.823,-9.08 32.12,-12.68 46.197,3.69 0,-8.361 0.01,-15.994 -0.011,-23.628 -0.003,-1.255 -1.122,-1.53 -1.992,-1.958 -24.75,-12.182 -64.086,-6.32 -73.111,30.286 -6.841,27.753 4.473,52.166 29.21,61.248 14.045,5.157 28.327,5.018 42.404,-0.519 2.492,-0.98 3.765,-2.278 3.616,-5.333 C -0.221,13.985 0,7.42 0,0"
             style="fill:#13102a;fill-opacity:1;fill-rule:nonzero;stroke:none"
             id="path36" />
        </g>
        <g
           id="g38"
           transform="translate(243.9586,470.9914)">
          <path
             d="m 0,0 c 2.986,6.151 5.713,11.625 8.289,17.169 0.69,1.485 1.701,1.624 3.066,1.621 12.484,-0.027 24.971,-0.138 37.453,0.059 3.741,0.059 2.851,-2.251 2.852,-4.216 0.019,-37.875 0.014,-75.749 0.014,-113.624 0,-7.46 -0.078,-14.921 0.048,-22.379 0.038,-2.212 -0.524,-3.027 -2.853,-2.951 -5.017,0.164 -10.061,0.307 -15.06,-0.039 -3.414,-0.236 -3.911,1.002 -3.902,4.066 0.107,36.727 0.069,73.454 0.069,110.18 0,2.152 -0.203,4.328 0.047,6.451 0.374,3.176 -1.026,3.782 -3.899,3.724 C 17.665,-0.11 9.199,0 0,0"
             style="fill:#13102a;fill-opacity:1;fill-rule:nonzero;stroke:none"
             id="path40" />
        </g>
        <g
           id="g42"
           transform="translate(553.7912,423.0306)">
          <path
             d="m 0,0 c 0,24.262 0.059,48.524 -0.073,72.785 -0.016,3.128 0.598,4.325 3.972,4.094 4.717,-0.322 9.476,-0.192 14.209,-0.035 2.474,0.081 3.516,-0.416 3.511,-3.259 -0.09,-48.954 -0.083,-97.909 -0.012,-146.863 0.003,-2.466 -0.713,-3.167 -3.127,-3.084 -5.02,0.172 -10.06,0.243 -15.072,-0.021 -2.945,-0.154 -3.478,0.897 -3.466,3.598 C 0.042,-48.524 0,-24.262 0,0"
             style="fill:#13102a;fill-opacity:1;fill-rule:nonzero;stroke:none"
             id="path44" />
        </g>
        <g
           id="g46"
           transform="translate(628.1992,393.2782)">
          <path
             d="m 0,0 c 0,-14.34 -0.065,-28.681 0.058,-43.02 0.023,-2.682 -0.496,-3.768 -3.458,-3.611 -5.007,0.266 -10.04,0.179 -15.056,0.026 -2.318,-0.071 -3.224,0.431 -3.216,3.014 0.092,29.254 0.088,58.508 0.006,87.762 -0.007,2.583 0.963,3.121 3.276,3.055 4.873,-0.139 9.762,-0.222 14.627,0.024 3.012,0.152 3.864,-0.778 3.832,-3.8 C -0.085,28.968 0,14.484 0,0"
             style="fill:#13102a;fill-opacity:1;fill-rule:nonzero;stroke:none"
             id="path48" />
        </g>
        <g
           id="g50"
           transform="translate(617.8789,467.1768)">
          <path
             d="m 0,0 c -7.673,-0.146 -13.891,5.729 -13.99,13.218 -0.097,7.333 5.829,13.473 13.153,13.628 7.998,0.17 13.696,-5.288 13.773,-13.192 C 13.012,5.892 7.566,0.144 0,0"
             style="fill:#13102a;fill-opacity:1;fill-rule:nonzero;stroke:none"
             id="path52" />
        </g>
        <g
           id="g54"
           transform="translate(530.0311,780.3644)">
          <path
             d="m 0,0 c -0.329,0 -0.662,-0.008 -0.997,-0.023 -8.875,-0.411 -15.37,-6.131 -16.95,-14.927 -0.673,-3.745 -0.998,-7.773 -0.992,-12.313 0.025,-18.09 0.022,-36.485 0.019,-54.275 l -0.002,-17.649 v -8.979 h 0.193 l 10e-4,-8.16 c 0.002,-16.971 0.004,-33.942 -0.012,-50.913 0,-0.741 0.017,-1.459 0.041,-2.159 -2.392,2.393 -4.781,4.789 -7.169,7.186 -7.606,7.63 -15.47,15.52 -23.357,23.176 -4.01,3.892 -8.945,6.036 -13.895,6.036 -4.887,0 -9.518,-2.048 -13.043,-5.767 -7.184,-7.58 -6.816,-19.094 0.855,-26.781 5.347,-5.359 10.773,-10.829 16.021,-16.118 15.395,-15.521 31.315,-31.57 47.409,-46.98 14.089,-13.492 31.952,-20.922 50.297,-20.922 1.274,0 2.563,0.037 3.831,0.111 18.287,1.054 35.19,8.803 47.596,21.818 12.318,12.923 19.239,29.987 19.488,48.049 0.258,18.705 0.204,37.689 0.151,56.048 -0.02,7.062 -0.04,14.123 -0.043,21.184 -0.006,11.584 -7.604,19.719 -18.478,19.782 l -0.129,10e-4 c -4.571,0 -8.529,-1.401 -11.592,-3.9 0,0.347 0.001,0.693 0.001,1.039 0,2.387 -0.052,4.939 -0.68,7.61 -2.039,8.662 -9.106,14.259 -18.004,14.259 -0.267,0 -0.537,-0.005 -0.808,-0.015 -4.407,-0.169 -8.227,-1.631 -11.17,-4.128 -0.17,1.047 -0.407,2.122 -0.735,3.224 -2.289,7.668 -9.557,13.023 -17.675,13.023 -0.321,0 -0.645,-0.009 -0.967,-0.026 -4.067,-0.215 -7.706,-1.612 -10.585,-3.911 0.016,11.06 0.03,22.12 0.037,33.18 0.003,3.173 -0.278,5.933 -0.859,8.438 C 15.859,-5.41 8.872,0 0,0 m 0,-8.986 c 4.541,0 8.047,-2.519 9.044,-6.824 0.481,-2.074 0.629,-4.266 0.627,-6.404 -0.024,-33.884 -0.102,-67.769 -0.143,-101.653 -0.002,-1.572 0.131,-3.157 0.363,-4.713 0.439,-2.956 2.11,-4.541 5.226,-4.576 0.034,0 0.069,0 0.103,0 3.082,0 4.651,1.571 5.109,4.53 0.558,3.607 0.649,16.586 0.646,29.666 -0.001,5.422 -0.019,10.862 -0.026,15.659 -0.008,5.182 -0.003,9.614 0.047,12.463 0.031,1.776 0.079,2.937 0.154,3.28 0.931,4.289 4.136,6.863 8.529,7.096 0.165,0.008 0.33,0.013 0.493,0.013 4.082,0 7.889,-2.673 9.063,-6.607 0.823,-2.756 0.797,-5.56 0.786,-8.377 -0.079,-18.377 -0.33,-36.754 0.483,-55.126 0.143,-3.214 0.615,-5.71 4.431,-6.063 0.256,-0.024 0.503,-0.036 0.738,-0.036 3.399,0 4.6,2.415 5.176,5.417 0.266,1.393 0.256,2.854 0.251,4.284 -0.049,13.065 -0.147,26.131 -0.172,39.196 -0.004,2.435 0.04,4.906 0.434,7.3 0.82,4.977 3.988,7.717 8.732,7.899 0.157,0.006 0.312,0.009 0.466,0.009 4.628,0 8.164,-2.688 9.257,-7.332 0.42,-1.786 0.441,-3.695 0.44,-5.548 -0.004,-14.789 -0.064,-29.578 -0.09,-44.367 -0.003,-1.722 -0.044,-3.462 0.178,-5.162 0.404,-3.092 2.158,-4.995 5.402,-4.998 h 0.009 c 3.423,0 5.386,1.918 5.555,5.267 0.209,4.155 0.127,8.325 0.128,12.489 0.001,6.605 -0.112,13.211 -0.033,19.814 0.083,6.877 3.609,10.829 9.429,10.829 0.026,0 0.051,-10e-4 0.076,-10e-4 5.842,-0.034 9.541,-4.144 9.544,-10.8 0.012,-25.702 0.248,-51.407 -0.106,-77.104 -0.448,-32.485 -25.368,-59.103 -58.616,-61.02 -1.106,-0.064 -2.212,-0.095 -3.314,-0.095 -16.417,0 -32.148,6.998 -44.082,18.425 -21.487,20.575 -42.265,41.893 -63.284,62.955 -4.354,4.364 -4.456,10.282 -0.693,14.253 1.843,1.944 4.12,2.962 6.52,2.962 2.53,0 5.197,-1.131 7.636,-3.499 11.436,-11.1 22.604,-22.476 33.895,-33.726 1.302,-1.296 2.591,-2.689 4.204,-3.525 0.831,-0.431 1.67,-0.631 2.47,-0.631 2.382,0 4.431,1.771 4.981,4.503 0.774,3.846 0.177,7.744 0.181,11.617 0.02,22.687 0.01,45.374 0.01,68.06 -0.064,0 -0.128,0 -0.192,0 0,23.979 0.015,47.957 -0.017,71.936 -0.005,3.602 0.213,7.169 0.849,10.711 0.838,4.665 3.848,7.324 8.522,7.54 0.195,0.009 0.389,0.014 0.581,0.014"
             style="fill:#231f20;fill-opacity:1;fill-rule:nonzero;stroke:none"
             id="path56" />
        </g>
        <g
           id="g58"
           transform="translate(543.991,229.2134)">
          <path
             d="m 0,0 c -149.498,0 -298.997,0 -448.495,0 -5.944,0 -5.946,0.003 -5.946,6.089 0,22.828 0.094,45.657 -0.091,68.483 -0.032,3.867 1.111,4.767 4.854,4.766 299.714,-0.085 599.429,-0.086 899.144,0.002 4.248,10e-4 5.346,-1.406 5.318,-5.463 C 454.623,51.05 454.588,28.22 454.81,5.395 454.853,1.06 453.779,-0.106 449.357,-0.103 299.571,0.021 149.786,0 0,0"
             style="fill:#267cbd;fill-opacity:1;fill-rule:nonzero;stroke:none"
             id="path60" />
        </g>
        <g
           id="g62"
           transform="translate(994.8735,186.7767)">
          <path
             d="m 0,0 h -125.599 c 0,0.278 0,0.556 0,0.833 H 10e-4 C 0,0.556 0,0.278 0,0"
             style="fill:#837f7f;fill-opacity:1;fill-rule:nonzero;stroke:none"
             id="path64" />
        </g>
        <g
           id="g66"
           transform="translate(211.7034,186.7399)">
          <path
             d="m 0,0 h -125.019 c -0.002,0.267 -0.003,0.535 -0.005,0.803 H -0.006 C -0.004,0.535 -0.002,0.267 0,0"
             style="fill:#837f7f;fill-opacity:1;fill-rule:nonzero;stroke:none"
             id="path68" />
        </g>
      </g>
    </g>
    <text
       xml:space="preserve"
       transform="matrix(1,0,0,-1,400.124,245.9648)"
       style="font-variant:normal;font-weight:normal;font-stretch:normal;font-size:71.8904px;font-family:'Futura Md BT';-inkscape-font-specification:FuturaBT-Medium;writing-mode:lr-tb;fill:#ffffff;fill-opacity:1;fill-rule:nonzero;stroke:none"
       id="text72"><tspan
         x="0 60.862411 128.29561 172.29253 216.28946 274.08932"
         y="0"
         sodipodi:role="line"
         id="tspan70">Policy</tspan></text>
    <text
       xml:space="preserve"
       transform="matrix(1,0,0,-1,226.3867,172.7559)"
       style="font-variant:normal;font-weight:normal;font-stretch:normal;font-size:53.9178px;font-family:'Futura Md BT';-inkscape-font-specification:FuturaBT-Medium;writing-mode:lr-tb;fill:#837f7f;fill-opacity:1;fill-rule:nonzero;stroke:none"
       id="text76"><tspan
         x="0 44.104759 79.259163 130.21149 163.96404 190.70726 226.18517 261.33957 281.397 320.86484 356.01923 391.17365 422.76947 456.522 476.57944 509.95456 545.10895 580.26337 600.37469"
         y="0"
         sodipodi:role="line"
         id="tspan74">Hamesha Aapke Saath</tspan></text>
    <g
       id="g78">
      <g
         id="g80"
         clip-path="url(#clipPath84)">
        <g
           id="g86"
           transform="translate(530.0311,780.3644)">
          <path
             d="m 0,0 c -0.329,0 -0.662,-0.008 -0.997,-0.023 -8.875,-0.411 -15.37,-6.131 -16.95,-14.927 -0.673,-3.745 -0.998,-7.773 -0.992,-12.313 0.025,-18.09 0.022,-36.485 0.019,-54.275 l -0.002,-17.649 v -8.979 h 0.193 l 10e-4,-8.16 c 0.002,-16.971 0.004,-33.942 -0.012,-50.913 0,-0.741 0.017,-1.459 0.041,-2.159 -2.392,2.393 -4.781,4.789 -7.169,7.186 -7.606,7.63 -15.47,15.52 -23.357,23.176 -4.01,3.892 -8.945,6.036 -13.895,6.036 -4.887,0 -9.518,-2.048 -13.043,-5.767 -7.184,-7.58 -6.816,-19.094 0.855,-26.781 5.347,-5.359 10.773,-10.829 16.021,-16.118 15.395,-15.521 31.315,-31.57 47.409,-46.98 14.089,-13.492 31.952,-20.922 50.297,-20.922 1.274,0 2.563,0.037 3.831,0.111 18.287,1.054 35.19,8.803 47.596,21.818 12.318,12.923 19.239,29.987 19.488,48.049 0.258,18.705 0.204,37.689 0.151,56.048 -0.02,7.062 -0.04,14.123 -0.043,21.184 -0.006,11.584 -7.604,19.719 -18.478,19.782 l -0.129,10e-4 c -4.571,0 -8.529,-1.401 -11.592,-3.9 0,0.347 0.001,0.693 0.001,1.039 0,2.387 -0.052,4.939 -0.68,7.61 -2.039,8.662 -9.106,14.259 -18.004,14.259 -0.267,0 -0.537,-0.005 -0.808,-0.015 -4.407,-0.169 -8.227,-1.631 -11.17,-4.128 -0.17,1.047 -0.407,2.122 -0.735,3.224 -2.289,7.668 -9.557,13.023 -17.675,13.023 -0.321,0 -0.645,-0.009 -0.967,-0.026 -4.067,-0.215 -7.706,-1.612 -10.585,-3.911 0.016,11.06 0.03,22.12 0.037,33.18 0.003,3.173 -0.278,5.933 -0.859,8.438 C 15.859,-5.41 8.872,0 0,0 m 0,-8.986 c 4.541,0 8.047,-2.519 9.044,-6.824 0.481,-2.074 0.629,-4.266 0.627,-6.404 -0.024,-33.884 -0.102,-67.769 -0.143,-101.653 -0.002,-1.572 0.131,-3.157 0.363,-4.713 0.439,-2.956 2.11,-4.541 5.226,-4.576 0.034,0 0.069,0 0.103,0 3.082,0 4.651,1.571 5.109,4.53 0.558,3.607 0.649,16.586 0.646,29.666 -0.001,5.422 -0.019,10.862 -0.026,15.659 -0.008,5.182 -0.003,9.614 0.047,12.463 0.031,1.776 0.079,2.937 0.154,3.28 0.931,4.289 4.136,6.863 8.529,7.096 0.165,0.008 0.33,0.013 0.493,0.013 4.082,0 7.889,-2.673 9.063,-6.607 0.823,-2.756 0.797,-5.56 0.786,-8.377 -0.079,-18.377 -0.33,-36.754 0.483,-55.126 0.143,-3.214 0.615,-5.71 4.431,-6.063 0.256,-0.024 0.503,-0.036 0.738,-0.036 3.399,0 4.6,2.415 5.176,5.417 0.266,1.393 0.256,2.854 0.251,4.284 -0.049,13.065 -0.147,26.131 -0.172,39.196 -0.004,2.435 0.04,4.906 0.434,7.3 0.82,4.977 3.988,7.717 8.732,7.899 0.157,0.006 0.312,0.009 0.466,0.009 4.628,0 8.164,-2.688 9.257,-7.332 0.42,-1.786 0.441,-3.695 0.44,-5.548 -0.004,-14.789 -0.064,-29.578 -0.09,-44.367 -0.003,-1.722 -0.044,-3.462 0.178,-5.162 0.404,-3.092 2.158,-4.995 5.402,-4.998 h 0.009 c 3.423,0 5.386,1.918 5.555,5.267 0.209,4.155 0.127,8.325 0.128,12.489 0.001,6.605 -0.112,13.211 -0.033,19.814 0.083,6.877 3.609,10.829 9.429,10.829 0.026,0 0.051,-10e-4 0.076,-10e-4 5.842,-0.034 9.541,-4.144 9.544,-10.8 0.012,-25.702 0.248,-51.407 -0.106,-77.104 -0.448,-32.485 -25.368,-59.103 -58.616,-61.02 -1.106,-0.064 -2.212,-0.095 -3.314,-0.095 -16.417,0 -32.148,6.998 -44.082,18.425 -21.487,20.575 -42.265,41.893 -63.284,62.955 -4.354,4.364 -4.456,10.282 -0.693,14.253 1.843,1.944 4.12,2.962 6.52,2.962 2.53,0 5.197,-1.131 7.636,-3.499 11.436,-11.1 22.604,-22.476 33.895,-33.726 1.302,-1.296 2.591,-2.689 4.204,-3.525 0.831,-0.431 1.67,-0.631 2.47,-0.631 2.382,0 4.431,1.771 4.981,4.503 0.774,3.846 0.177,7.744 0.181,11.617 0.02,22.687 0.01,45.374 0.01,68.06 -0.064,0 -0.128,0 -0.192,0 0,23.979 0.015,47.957 -0.017,71.936 -0.005,3.602 0.213,7.169 0.849,10.711 0.838,4.665 3.848,7.324 8.522,7.54 0.195,0.009 0.389,0.014 0.581,0.014"
             style="fill:#231f20;fill-opacity:1;fill-rule:nonzero;stroke:none"
             id="path88" />
        </g>
        <g
           id="g90"
           transform="translate(530.0311,780.3644)">
          <path
             d="m 0,0 c -0.329,0 -0.662,-0.008 -0.997,-0.023 -8.875,-0.411 -15.37,-6.131 -16.95,-14.927 -0.673,-3.745 -0.998,-7.773 -0.992,-12.313 0.025,-18.09 0.022,-36.485 0.019,-54.275 l -0.002,-17.649 v -8.979 h 0.193 l 10e-4,-8.16 c 0.002,-16.971 0.004,-33.942 -0.012,-50.913 0,-0.741 0.017,-1.459 0.041,-2.159 -2.392,2.393 -4.781,4.789 -7.169,7.186 -7.606,7.63 -15.47,15.52 -23.357,23.176 -4.01,3.892 -8.945,6.036 -13.895,6.036 -4.887,0 -9.518,-2.048 -13.043,-5.767 -7.184,-7.58 -6.816,-19.094 0.855,-26.781 5.347,-5.359 10.773,-10.829 16.021,-16.118 15.395,-15.521 31.315,-31.57 47.409,-46.98 14.089,-13.492 31.952,-20.922 50.297,-20.922 1.274,0 2.563,0.037 3.831,0.111 18.287,1.054 35.19,8.803 47.596,21.818 12.318,12.923 19.239,29.987 19.488,48.049 0.258,18.705 0.204,37.689 0.151,56.048 -0.02,7.062 -0.04,14.123 -0.043,21.184 -0.006,11.584 -7.604,19.719 -18.478,19.782 l -0.129,10e-4 c -4.571,0 -8.529,-1.401 -11.592,-3.9 0,0.347 0.001,0.693 0.001,1.039 0,2.387 -0.052,4.939 -0.68,7.61 -2.039,8.662 -9.106,14.259 -18.004,14.259 -0.267,0 -0.537,-0.005 -0.808,-0.015 -4.407,-0.169 -8.227,-1.631 -11.17,-4.128 -0.17,1.047 -0.407,2.122 -0.735,3.224 -2.289,7.668 -9.557,13.023 -17.675,13.023 -0.321,0 -0.645,-0.009 -0.967,-0.026 -4.067,-0.215 -7.706,-1.612 -10.585,-3.911 0.016,11.06 0.03,22.12 0.037,33.18 0.003,3.173 -0.278,5.933 -0.859,8.438 C 15.859,-5.41 8.872,0 0,0 m 0,-8.986 c 4.541,0 8.047,-2.519 9.044,-6.824 0.481,-2.074 0.629,-4.266 0.627,-6.404 -0.024,-33.884 -0.102,-67.769 -0.143,-101.653 -0.002,-1.572 0.131,-3.157 0.363,-4.713 0.439,-2.956 2.11,-4.541 5.226,-4.576 0.034,0 0.069,0 0.103,0 3.082,0 4.651,1.571 5.109,4.53 0.558,3.607 0.649,16.586 0.646,29.666 -0.001,5.422 -0.019,10.862 -0.026,15.659 -0.008,5.182 -0.003,9.614 0.047,12.463 0.031,1.776 0.079,2.937 0.154,3.28 0.931,4.289 4.136,6.863 8.529,7.096 0.165,0.008 0.33,0.013 0.493,0.013 4.082,0 7.889,-2.673 9.063,-6.607 0.823,-2.756 0.797,-5.56 0.786,-8.377 -0.079,-18.377 -0.33,-36.754 0.483,-55.126 0.143,-3.214 0.615,-5.71 4.431,-6.063 0.256,-0.024 0.503,-0.036 0.738,-0.036 3.399,0 4.6,2.415 5.176,5.417 0.266,1.393 0.256,2.854 0.251,4.284 -0.049,13.065 -0.147,26.131 -0.172,39.196 -0.004,2.435 0.04,4.906 0.434,7.3 0.82,4.977 3.988,7.717 8.732,7.899 0.157,0.006 0.312,0.009 0.466,0.009 4.628,0 8.164,-2.688 9.257,-7.332 0.42,-1.786 0.441,-3.695 0.44,-5.548 -0.004,-14.789 -0.064,-29.578 -0.09,-44.367 -0.003,-1.722 -0.044,-3.462 0.178,-5.162 0.404,-3.092 2.158,-4.995 5.402,-4.998 h 0.009 c 3.423,0 5.386,1.918 5.555,5.267 0.209,4.155 0.127,8.325 0.128,12.489 0.001,6.605 -0.112,13.211 -0.033,19.814 0.083,6.877 3.609,10.829 9.429,10.829 0.026,0 0.051,-10e-4 0.076,-10e-4 5.842,-0.034 9.541,-4.144 9.544,-10.8 0.012,-25.702 0.248,-51.407 -0.106,-77.104 -0.448,-32.485 -25.368,-59.103 -58.616,-61.02 -1.106,-0.064 -2.212,-0.095 -3.314,-0.095 -16.417,0 -32.148,6.998 -44.082,18.425 -21.487,20.575 -42.265,41.893 -63.284,62.955 -4.354,4.364 -4.456,10.282 -0.693,14.253 1.843,1.944 4.12,2.962 6.52,2.962 2.53,0 5.197,-1.131 7.636,-3.499 11.436,-11.1 22.604,-22.476 33.895,-33.726 1.302,-1.296 2.591,-2.689 4.204,-3.525 0.831,-0.431 1.67,-0.631 2.47,-0.631 2.382,0 4.431,1.771 4.981,4.503 0.774,3.846 0.177,7.744 0.181,11.617 0.02,22.687 0.01,45.374 0.01,68.06 -0.064,0 -0.128,0 -0.192,0 0,23.979 0.015,47.957 -0.017,71.936 -0.005,3.602 0.213,7.169 0.849,10.711 0.838,4.665 3.848,7.324 8.522,7.54 0.195,0.009 0.389,0.014 0.581,0.014"
             style="fill:#231f20;fill-opacity:1;fill-rule:nonzero;stroke:none"
             id="path92" />
        </g>
      </g>
    </g>
  </g>
</svg>
