<svg width="12" height="11" viewBox="0 0 12 11" fill="none" xmlns="http://www.w3.org/2000/svg">
<path id="Star 1" d="M5.61958 0.818033C5.73932 0.449509 6.26068 0.449509 6.38042 0.818034L7.24668 3.48409C7.35378 3.81371 7.66094 4.03688 8.00752 4.03688H10.8108C11.1983 4.03688 11.3594 4.53273 11.0459 4.76049L8.77801 6.4082C8.49762 6.61192 8.3803 6.97301 8.4874 7.30263L9.35365 9.96869C9.47339 10.3372 9.0516 10.6437 8.73812 10.4159L6.47023 8.76819C6.18984 8.56447 5.81016 8.56447 5.52977 8.76819L3.26188 10.4159C2.9484 10.6437 2.52661 10.3372 2.64635 9.96869L3.5126 7.30263C3.6197 6.97301 3.50238 6.61192 3.22199 6.4082L0.954099 4.76049C0.640615 4.53273 0.801724 4.03688 1.18921 4.03688H3.99248C4.33906 4.03688 4.64622 3.81371 4.75332 3.48409L5.61958 0.818033Z" fill="#FFE140" stroke="#FFD700" stroke-width="0.4"/>
</svg>
