<svg width="20" height="20" viewBox="0 0 20 20" fill="none" xmlns="http://www.w3.org/2000/svg">
<g id="bell-02">
<path id="Icon" d="M11.2164 18.3062H7.78356M14.6493 7.14931C14.6493 5.78363 14.1068 4.47388 13.1411 3.5082C12.1754 2.54252 10.8657 2 9.5 2C8.13432 2 6.82457 2.54252 5.85889 3.5082C4.8932 4.47388 4.35069 5.78363 4.35069 7.14931C4.35069 9.80137 3.68168 11.6172 2.93434 12.8182C2.30395 13.8313 1.98875 14.3378 2.00031 14.4791C2.0131 14.6356 2.04625 14.6953 2.17234 14.7888C2.28621 14.8733 2.79954 14.8733 3.82619 14.8733H15.1738C16.2005 14.8733 16.7138 14.8733 16.8277 14.7888C16.9537 14.6953 16.9869 14.6356 16.9997 14.4791C17.0112 14.3378 16.6961 13.8313 16.0657 12.8182C15.3183 11.6172 14.6493 9.80137 14.6493 7.14931Z" stroke="black" stroke-width="2" stroke-linecap="round" stroke-linejoin="round"/>
</g>
</svg>
