<svg width="25" height="24" viewBox="0 0 25 24" fill="none" xmlns="http://www.w3.org/2000/svg">
<g id="glasses-02">
<path id="Icon" d="M10.1667 14.5347C11.4002 13.8218 12.933 13.8218 14.1666 14.5347M2.16669 15L2.86818 7.98511C2.89477 7.71915 2.90807 7.58617 2.92846 7.47208C3.16891 6.12702 4.28789 5.11436 5.65021 5.00894C5.76575 5 5.8994 5 6.16669 5M22.1667 15L21.4652 7.98511C21.4386 7.71916 21.4253 7.58617 21.4049 7.47208C21.1645 6.12702 20.0455 5.11436 18.6832 5.00894C18.5676 5 18.434 5 18.1667 5M8.99512 12.1716C10.5572 13.7337 10.5572 16.2663 8.99512 17.8284C7.43302 19.3905 4.90036 19.3905 3.33826 17.8284C1.77616 16.2663 1.77616 13.7337 3.33826 12.1716C4.90035 10.6095 7.43301 10.6095 8.99512 12.1716ZM20.9951 12.1716C22.5572 13.7337 22.5572 16.2663 20.9951 17.8284C19.433 19.3905 16.9004 19.3905 15.3383 17.8284C13.7762 16.2663 13.7762 13.7337 15.3383 12.1716C16.9004 10.6095 19.433 10.6095 20.9951 12.1716Z" stroke="#949494" stroke-width="2" stroke-linecap="round" stroke-linejoin="round"/>
</g>
</svg>
