<svg width="25" height="24" viewBox="0 0 25 24" fill="none" xmlns="http://www.w3.org/2000/svg">
<g id="award-05">
<path id="Icon" d="M7.9684 11.189L4.16365 4.38052C3.72616 3.59765 3.50742 3.20621 3.54428 2.88573C3.57645 2.60611 3.72496 2.353 3.95335 2.18852C4.21514 2 4.66354 2 5.56036 2H7.79518C8.12848 2 8.29513 2 8.4446 2.04813C8.57687 2.09073 8.69881 2.16042 8.80264 2.25276C8.91999 2.35712 9.00457 2.5007 9.17375 2.78788L12.8334 9L16.493 2.78788C16.6621 2.5007 16.7467 2.35712 16.8641 2.25276C16.9679 2.16042 17.0898 2.09073 17.2221 2.04813C17.3716 2 17.5382 2 17.8715 2H20.1064C21.0032 2 21.4516 2 21.7134 2.18852C21.9418 2.353 22.0903 2.60611 22.1224 2.88573C22.1593 3.20621 21.9406 3.59765 21.5031 4.38052L17.6983 11.189M11.3334 14L12.8334 13V18M11.5834 18H14.0834M17.4296 10.9038C19.968 13.4422 19.968 17.5578 17.4296 20.0962C14.8912 22.6346 10.7756 22.6346 8.23716 20.0962C5.69876 17.5578 5.69876 13.4422 8.23716 10.9038C10.7756 8.3654 14.8911 8.3654 17.4296 10.9038Z" stroke="#949494" stroke-width="2" stroke-linecap="round" stroke-linejoin="round"/>
</g>
</svg>
