<svg width="159" height="161" viewBox="0 0 159 161" fill="none" xmlns="http://www.w3.org/2000/svg">
<g filter="url(#filter0_diiii_531_3557)">
<path d="M68.8618 26.8995C72.7124 24.3966 74.6377 23.1452 76.7121 22.6583C78.5458 22.2278 80.4542 22.2278 82.2879 22.6583C84.3623 23.1452 86.2876 24.3966 90.1382 26.8995L136.059 56.7481C137.682 57.8028 138.493 58.3302 139.081 59.0336C139.601 59.6563 139.992 60.3765 140.231 61.1521C140.5 62.0284 140.5 62.996 140.5 64.9313V109.655C140.5 119.904 140.5 125.028 138.505 128.943C136.751 132.386 133.951 135.186 130.508 136.94C126.593 138.935 121.469 138.935 111.22 138.935H47.78C37.531 138.935 32.4066 138.935 28.492 136.94C25.0486 135.186 22.2491 132.386 20.4946 128.943C18.5 125.028 18.5 119.904 18.5 109.655V64.9313C18.5 62.996 18.5 62.0284 18.7694 61.1521C19.0079 60.3765 19.3988 59.6563 19.9192 59.0336C20.507 58.3302 21.3183 57.8028 22.9409 56.7481L68.8618 26.8995Z" fill="url(#paint0_linear_531_3557)"/>
<path d="M68.8618 92.3699L31.0896 67.8179C26.8937 65.0906 24.7957 63.7269 24.0691 61.9976C23.4342 60.4863 23.4342 58.7831 24.0691 57.2718C24.7957 55.5424 26.8937 54.1788 31.0896 51.4515L68.8618 26.8995C72.7124 24.3966 74.6377 23.1452 76.7121 22.6583C78.5458 22.2278 80.4542 22.2278 82.2879 22.6583C84.3623 23.1452 86.2876 24.3966 90.1382 26.8995L127.91 51.4515C132.106 54.1788 134.204 55.5424 134.931 57.2718C135.566 58.7831 135.566 60.4863 134.931 61.9976C134.204 63.7269 132.106 65.0906 127.91 67.8179L90.1382 92.3699C86.2876 94.8727 84.3623 96.1242 82.2879 96.6111C80.4542 97.0415 78.5458 97.0415 76.7121 96.6111C74.6377 96.1242 72.7124 94.8728 68.8618 92.3699Z" fill="url(#paint1_linear_531_3557)"/>
<path d="M127.365 52.2899C127.371 52.2934 127.376 52.2969 127.382 52.3004C129.487 53.6691 131.01 54.6604 132.103 55.5214C133.198 56.3839 133.744 57.0289 134.009 57.6591C134.54 58.9227 134.54 60.3467 134.009 61.6102C133.744 62.2404 133.198 62.8855 132.103 63.748C131.007 64.6111 129.48 65.6053 127.365 66.9795L89.5932 91.5314C85.6785 94.076 83.923 95.2001 82.0593 95.6376C80.376 96.0327 78.624 96.0327 76.9407 95.6376C75.077 95.2001 73.3215 94.076 69.4068 91.5314L31.6345 66.9794C29.5204 65.6053 27.9928 64.6111 26.8972 63.748C25.8025 62.8855 25.2559 62.2404 24.9911 61.6102C24.4602 60.3467 24.4602 58.9227 24.9911 57.6591C25.2559 57.0289 25.8025 56.3839 26.8972 55.5214C27.9928 54.6582 29.5204 53.6641 31.6345 52.2899L69.4068 27.7379C73.3215 25.1934 75.077 24.0692 76.9407 23.6318C78.624 23.2367 80.376 23.2367 82.0593 23.6318C83.923 24.0692 85.6785 25.1934 89.5932 27.7379L127.365 52.2899ZM22.7713 58.0528C22.4427 59.4907 22.568 61.0064 23.1472 62.385C23.609 63.4841 24.4747 64.3855 25.6595 65.319C26.8351 66.2452 28.4398 67.2882 30.5002 68.6275L30.5446 68.6563L62.05 89.1349C61.818 89.1397 61.5866 89.2248 61.4009 89.3926L20.8797 125.993C20.7292 126.129 20.6296 126.3 20.5822 126.482C20.1662 125.123 19.9055 123.545 19.746 121.593C19.5008 118.591 19.5 114.796 19.5 109.655V64.9313C19.5 62.9328 19.5104 62.1447 19.7253 61.4461C19.9247 60.7976 20.2515 60.1954 20.6865 59.6748C21.0819 59.2017 21.6099 58.8158 22.7713 58.0528ZM21.3856 128.489C21.2293 128.182 21.0857 127.866 20.9537 127.538C21.3286 127.817 21.8603 127.802 22.2203 127.477L62.7415 90.8768C63.065 90.5845 63.1532 90.129 62.9939 89.7484L68.3168 93.2083L68.5125 93.3355C72.1761 95.7171 74.2381 97.0576 76.4836 97.5847C78.4676 98.0503 80.5324 98.0503 82.5164 97.5847C84.762 97.0576 86.824 95.7171 90.4876 93.3354L90.6832 93.2083L96.0061 89.7484C95.8468 90.129 95.935 90.5845 96.2585 90.8768L136.78 127.477C137.14 127.802 137.671 127.817 138.046 127.538C137.914 127.866 137.771 128.182 137.614 128.489C135.956 131.744 133.309 134.39 130.054 136.049C128.261 136.963 126.148 137.444 123.158 137.689C120.157 137.934 116.361 137.935 111.22 137.935H47.78C42.639 137.935 38.8434 137.934 35.842 137.689C32.8523 137.444 30.7388 136.963 28.946 136.049C25.6908 134.39 23.0442 131.744 21.3856 128.489ZM96.95 89.1349L128.455 68.6563L128.5 68.6275C130.56 67.2883 132.165 66.2452 133.34 65.319C134.525 64.3855 135.391 63.4841 135.853 62.385C136.432 61.0064 136.557 59.4907 136.229 58.0528C137.39 58.8158 137.918 59.2017 138.313 59.6748C138.749 60.1954 139.075 60.7976 139.275 61.4461C139.49 62.1447 139.5 62.9328 139.5 64.9313V109.655C139.5 114.796 139.499 118.591 139.254 121.593C139.095 123.545 138.834 125.123 138.418 126.482C138.37 126.3 138.271 126.129 138.12 125.993L97.5991 89.3926C97.4134 89.2248 97.182 89.1397 96.95 89.1349Z" stroke="white" stroke-width="2" stroke-linecap="round" stroke-linejoin="round"/>
</g>
<g filter="url(#filter1_dii_531_3557)">
<path d="M38.543 22.4641V69.5387L68.9842 89.5084C72.7888 92.0042 74.6911 93.2522 76.7433 93.7384C78.5571 94.1681 80.4462 94.1694 82.2606 93.7421C84.3134 93.2587 86.2174 92.0133 90.0254 89.5227L121.329 69.0481V22.4641C121.329 20.7839 121.329 19.9438 121.002 19.3021C120.714 18.7376 120.255 18.2787 119.691 17.991C119.049 17.6641 118.209 17.6641 116.529 17.6641H43.343C41.6628 17.6641 40.8227 17.6641 40.181 17.991C39.6165 18.2787 39.1576 18.7376 38.8699 19.3021C38.543 19.9438 38.543 20.7839 38.543 22.4641Z" fill="#E5EAFF"/>
<path d="M38.543 22.4641V69.5387L68.9842 89.5084C72.7888 92.0042 74.6911 93.2522 76.7433 93.7384C78.5571 94.1681 80.4462 94.1694 82.2606 93.7421C84.3134 93.2587 86.2174 92.0133 90.0254 89.5227L121.329 69.0481V22.4641C121.329 20.7839 121.329 19.9438 121.002 19.3021C120.714 18.7376 120.255 18.2787 119.691 17.991C119.049 17.6641 118.209 17.6641 116.529 17.6641H43.343C41.6628 17.6641 40.8227 17.6641 40.181 17.991C39.6165 18.2787 39.1576 18.7376 38.8699 19.3021C38.543 19.9438 38.543 20.7839 38.543 22.4641Z" stroke="#9CB1FF" stroke-width="2" stroke-linecap="round" stroke-linejoin="round"/>
</g>
<path d="M60.9423 40.5314C59.785 40.5314 58.8563 40.2141 58.1563 39.5794C57.4563 38.9354 57.1063 37.9648 57.1063 36.6674V34.2034C57.1063 32.9434 57.4563 31.9868 58.1563 31.3334C58.8563 30.6708 59.785 30.3394 60.9423 30.3394C62.109 30.3394 63.0376 30.6708 63.7283 31.3334C64.4283 31.9868 64.7783 32.9434 64.7783 34.2034V36.6674C64.7783 37.9648 64.4283 38.9354 63.7283 39.5794C63.0376 40.2141 62.109 40.5314 60.9423 40.5314ZM60.9423 38.9354C61.6423 38.9354 62.1556 38.7441 62.4823 38.3614C62.8183 37.9788 62.9863 37.4328 62.9863 36.7234V34.1194C62.9863 33.4008 62.7996 32.8594 62.4263 32.4954C62.0623 32.1221 61.5676 31.9354 60.9423 31.9354C60.2983 31.9354 59.7943 32.1268 59.4303 32.5094C59.0756 32.8921 58.8983 33.4288 58.8983 34.1194V36.7234C58.8983 37.4608 59.0663 38.0161 59.4023 38.3894C59.7476 38.7534 60.261 38.9354 60.9423 38.9354ZM69.1524 40.3354L72.0224 35.3934L69.1804 30.5354H71.2804L73.2264 34.0774H73.4784L75.4244 30.5354H77.5244L74.6824 35.3934L77.5524 40.3354H75.4524L73.4784 36.7094H73.2264L71.2524 40.3354H69.1524ZM81.5222 40.3354L84.3922 35.3934L81.5502 30.5354H83.6502L85.5962 34.0774H85.8482L87.7942 30.5354H89.8942L87.0522 35.3934L89.9222 40.3354H87.8222L85.8482 36.7094H85.5962L83.6222 40.3354H81.5222ZM93.8919 40.3354L96.7619 35.3934L93.9199 30.5354H96.0199L97.9659 34.0774H98.2179L100.164 30.5354H102.264L99.4219 35.3934L102.292 40.3354H100.192L98.2179 36.7094H97.9659L95.9919 40.3354H93.8919Z" fill="#121212"/>
<rect x="48" y="50" width="64" height="4" rx="2" fill="#9CB1FF"/>
<rect x="48" y="59" width="64" height="4" rx="2" fill="#9CB1FF"/>
<rect x="52" y="68" width="55" height="4" rx="2" fill="#9CB1FF"/>
<rect x="67" y="77" width="26" height="4" rx="2" fill="#9CB1FF"/>
<defs>
<filter id="filter0_diiii_531_3557" x="0.5" y="8.33545" width="158" height="152.599" filterUnits="userSpaceOnUse" color-interpolation-filters="sRGB">
<feFlood flood-opacity="0" result="BackgroundImageFix"/>
<feColorMatrix in="SourceAlpha" type="matrix" values="0 0 0 0 0 0 0 0 0 0 0 0 0 0 0 0 0 0 127 0" result="hardAlpha"/>
<feOffset dy="4"/>
<feGaussianBlur stdDeviation="9"/>
<feComposite in2="hardAlpha" operator="out"/>
<feColorMatrix type="matrix" values="0 0 0 0 0.344439 0 0 0 0 0.478569 0 0 0 0 0.994455 0 0 0 0.24 0"/>
<feBlend mode="normal" in2="BackgroundImageFix" result="effect1_dropShadow_531_3557"/>
<feBlend mode="normal" in="SourceGraphic" in2="effect1_dropShadow_531_3557" result="shape"/>
<feColorMatrix in="SourceAlpha" type="matrix" values="0 0 0 0 0 0 0 0 0 0 0 0 0 0 0 0 0 0 127 0" result="hardAlpha"/>
<feOffset dy="6"/>
<feGaussianBlur stdDeviation="2"/>
<feComposite in2="hardAlpha" operator="arithmetic" k2="-1" k3="1"/>
<feColorMatrix type="matrix" values="0 0 0 0 0 0 0 0 0 0 0 0 0 0 0 0 0 0 0.12 0"/>
<feBlend mode="normal" in2="shape" result="effect2_innerShadow_531_3557"/>
<feColorMatrix in="SourceAlpha" type="matrix" values="0 0 0 0 0 0 0 0 0 0 0 0 0 0 0 0 0 0 127 0" result="hardAlpha"/>
<feOffset dy="-6"/>
<feGaussianBlur stdDeviation="3"/>
<feComposite in2="hardAlpha" operator="arithmetic" k2="-1" k3="1"/>
<feColorMatrix type="matrix" values="0 0 0 0 0 0 0 0 0 0 0 0 0 0 0 0 0 0 0.08 0"/>
<feBlend mode="normal" in2="effect2_innerShadow_531_3557" result="effect3_innerShadow_531_3557"/>
<feColorMatrix in="SourceAlpha" type="matrix" values="0 0 0 0 0 0 0 0 0 0 0 0 0 0 0 0 0 0 127 0" result="hardAlpha"/>
<feOffset dx="-8"/>
<feGaussianBlur stdDeviation="3"/>
<feComposite in2="hardAlpha" operator="arithmetic" k2="-1" k3="1"/>
<feColorMatrix type="matrix" values="0 0 0 0 0 0 0 0 0 0 0 0 0 0 0 0 0 0 0.08 0"/>
<feBlend mode="normal" in2="effect3_innerShadow_531_3557" result="effect4_innerShadow_531_3557"/>
<feColorMatrix in="SourceAlpha" type="matrix" values="0 0 0 0 0 0 0 0 0 0 0 0 0 0 0 0 0 0 127 0" result="hardAlpha"/>
<feOffset dx="8"/>
<feGaussianBlur stdDeviation="3"/>
<feComposite in2="hardAlpha" operator="arithmetic" k2="-1" k3="1"/>
<feColorMatrix type="matrix" values="0 0 0 0 0 0 0 0 0 0 0 0 0 0 0 0 0 0 0.08 0"/>
<feBlend mode="normal" in2="effect4_innerShadow_531_3557" result="effect5_innerShadow_531_3557"/>
</filter>
<filter id="filter1_dii_531_3557" x="19.543" y="0.664062" width="120.786" height="114.397" filterUnits="userSpaceOnUse" color-interpolation-filters="sRGB">
<feFlood flood-opacity="0" result="BackgroundImageFix"/>
<feColorMatrix in="SourceAlpha" type="matrix" values="0 0 0 0 0 0 0 0 0 0 0 0 0 0 0 0 0 0 127 0" result="hardAlpha"/>
<feOffset dy="2"/>
<feGaussianBlur stdDeviation="9"/>
<feComposite in2="hardAlpha" operator="out"/>
<feColorMatrix type="matrix" values="0 0 0 0 0.344439 0 0 0 0 0.478569 0 0 0 0 0.994455 0 0 0 0.16 0"/>
<feBlend mode="normal" in2="BackgroundImageFix" result="effect1_dropShadow_531_3557"/>
<feBlend mode="normal" in="SourceGraphic" in2="effect1_dropShadow_531_3557" result="shape"/>
<feColorMatrix in="SourceAlpha" type="matrix" values="0 0 0 0 0 0 0 0 0 0 0 0 0 0 0 0 0 0 127 0" result="hardAlpha"/>
<feOffset dy="2"/>
<feGaussianBlur stdDeviation="5"/>
<feComposite in2="hardAlpha" operator="arithmetic" k2="-1" k3="1"/>
<feColorMatrix type="matrix" values="0 0 0 0 0 0 0 0 0 0 0 0 0 0 0 0 0 0 0.24 0"/>
<feBlend mode="normal" in2="shape" result="effect2_innerShadow_531_3557"/>
<feColorMatrix in="SourceAlpha" type="matrix" values="0 0 0 0 0 0 0 0 0 0 0 0 0 0 0 0 0 0 127 0" result="hardAlpha"/>
<feOffset dy="-2"/>
<feGaussianBlur stdDeviation="2"/>
<feComposite in2="hardAlpha" operator="arithmetic" k2="-1" k3="1"/>
<feColorMatrix type="matrix" values="0 0 0 0 0.223529 0 0 0 0 0.376471 0 0 0 0 0.964706 0 0 0 0.24 0"/>
<feBlend mode="normal" in2="effect2_innerShadow_531_3557" result="effect3_innerShadow_531_3557"/>
</filter>
<linearGradient id="paint0_linear_531_3557" x1="96.9286" y1="72.8271" x2="16.698" y2="260.627" gradientUnits="userSpaceOnUse">
<stop stop-color="#4C71FF"/>
<stop offset="1" stop-color="#213890"/>
</linearGradient>
<linearGradient id="paint1_linear_531_3557" x1="96.9286" y1="72.8271" x2="16.698" y2="260.627" gradientUnits="userSpaceOnUse">
<stop stop-color="#4C71FF"/>
<stop offset="1" stop-color="#213890"/>
</linearGradient>
</defs>
</svg>
